<svg id="Ebene_1" data-name="Ebene 1" xmlns="http://www.w3.org/2000/svg" viewBox="0 0 161.57 142.19"><defs><style>.cls-1{fill:#fff;}</style></defs><path class="cls-1" d="M1.26,73.06,16.37,80l15.16,7,10.38,4.74,34.92,16a9.25,9.25,0,0,0,3.88.86,9.09,9.09,0,0,0,3.89-.86l34.92-16,10.37-4.74,15.17-7,15.11-6.92a2.13,2.13,0,0,0,1.28-1.94,2.16,2.16,0,0,0-1.28-2L141.5,60.6l-10.37,4.74,12.6,5.78-9,4.12-15.16,7-10.38,4.74L83.08,98.88a5.64,5.64,0,0,1-4.73,0L52.29,86.94,41.91,82.2,26.75,75.29l-9-4.17,12.55-5.78L19.88,60.6,1.21,69.13a2.2,2.2,0,0,0-1.28,2,2.18,2.18,0,0,0,1.33,1.94" transform="translate(0.07)"/><path class="cls-1" d="M160.17,102.81,141.5,94.29,131.13,99l12.55,5.78-9.05,4.13-15.16,7-10.38,4.74L83,132.57a5.66,5.66,0,0,1-4.74,0L52.24,120.63l-10.38-4.74L26.7,109l-9-4.21L30.25,99,19.88,94.24,1.21,102.77a2.13,2.13,0,0,0-1.28,1.94,2.05,2.05,0,0,0,1.28,1.94l15.16,7,15.16,7,10.38,4.74,34.92,16a9.25,9.25,0,0,0,3.88.86,9.09,9.09,0,0,0,3.89-.86l35-16,10.37-4.74,15.16-7,15.12-6.92a2.1,2.1,0,0,0-.05-3.89" transform="translate(0.07)"/><path class="cls-1" d="M23,49.37,1.26,39.42A2.13,2.13,0,0,1,0,37.48a2,2,0,0,1,1.28-1.94l.52-.24,14.59-6.73,15.16-7,10.38-4.74L76.83.85A9.24,9.24,0,0,1,80.71,0,9.08,9.08,0,0,1,84.6.85l34.92,16,10.37,4.74,8.25,3.79,1.23.52,20.75,9.52a2.2,2.2,0,0,1,1.28,2,2.05,2.05,0,0,1-1.28,1.94L145,46.29l-15.16,7L119.47,58,84.6,74.06a9.4,9.4,0,0,1-3.89.85,9.22,9.22,0,0,1-3.88-.85L41.91,58,31.53,53.3l-15.16-7" transform="translate(0.07)"/></svg>