<svg id="Layer_1" data-name="Layer 1" xmlns="http://www.w3.org/2000/svg" viewBox="0 0 1423.3 300.1"><defs><style>.cls-1{fill:#fff;}</style></defs><path class="cls-1" d="M3.1,154.1,35,168.7l32,14.7,21.9,10,73.7,33.8a19.56,19.56,0,0,0,8.2,1.8,19.23,19.23,0,0,0,8.2-1.8l73.7-33.8,21.9-10,32-14.7,31.9-14.6a4.5,4.5,0,0,0,2.7-4.1,4.59,4.59,0,0,0-2.7-4.2l-39.4-18-21.9,10L303.8,150l-19.1,8.7-32,14.7-21.9,10-55,25.2a11.91,11.91,0,0,1-10,0l-55-25.2-21.9-10-32-14.6L37.8,150l26.5-12.2-21.9-10L3,145.8A4.65,4.65,0,0,0,.3,150a4.6,4.6,0,0,0,2.8,4.1" transform="translate(-0.3 0.1)"/><path class="cls-1" d="M338.5,216.9l-39.4-18-21.9,10,26.5,12.2-19.1,8.7-32,14.7-21.9,10-55,25.2a11.91,11.91,0,0,1-10,0l-55-25.2-21.9-10-32-14.6-19-8.9,26.5-12.2-21.9-10L3,216.8a4.5,4.5,0,0,0-2.7,4.1A4.35,4.35,0,0,0,3,225l32,14.7,32,14.7,21.9,10,73.7,33.8a19.56,19.56,0,0,0,8.2,1.8,19.23,19.23,0,0,0,8.2-1.8l73.8-33.8,21.9-10,32-14.7,31.9-14.6a4.43,4.43,0,0,0-.1-8.2" transform="translate(-0.3 0.1)"/><path class="cls-1" d="M49,104.1,3.1,83.1A4.5,4.5,0,0,1,.4,79a4.35,4.35,0,0,1,2.7-4.1l1.1-.5L35,60.2,67,45.5l21.9-10L162.6,1.7a19.56,19.56,0,0,1,8.2-1.8A19.23,19.23,0,0,1,179,1.7l73.7,33.8,21.9,10,17.4,8,2.6,1.1,43.8,20.1a4.65,4.65,0,0,1,2.7,4.2,4.35,4.35,0,0,1-2.7,4.1L306.5,97.6l-32,14.7-21.9,10L179,156.2a19.56,19.56,0,0,1-8.2,1.8,19.23,19.23,0,0,1-8.2-1.8L88.9,122.4,67,112.4,35,97.7" transform="translate(-0.3 0.1)"/><path class="cls-1" d="M457.2,199.8a19.26,19.26,0,0,0,5.7,6.3,25.4,25.4,0,0,0,8,3.6,36.71,36.71,0,0,0,9.4,1.2,37.89,37.89,0,0,0,7.3-.8,22.53,22.53,0,0,0,7-2.6,14.7,14.7,0,0,0,5.2-4.7,12.13,12.13,0,0,0,2.1-7.3c0-5-3.3-8.7-9.9-11.2s-15.8-5-27.6-7.5c-4.8-1.1-9.5-2.4-14.1-3.8a47.52,47.52,0,0,1-12.2-5.8,27.71,27.71,0,0,1-8.6-9.1,25.6,25.6,0,0,1-3.3-13.4c0-7.8,1.5-14.1,4.5-19.1a33.1,33.1,0,0,1,12-11.8,53.39,53.39,0,0,1,16.8-6.1,100.53,100.53,0,0,1,19.1-1.7,91.39,91.39,0,0,1,19,1.9,50.46,50.46,0,0,1,16.4,6.3A38.58,38.58,0,0,1,526,126c3.2,4.9,5.1,11.1,5.7,18.5H500.2q-.75-9.6-7.2-12.9a33.63,33.63,0,0,0-15.4-3.4,44.52,44.52,0,0,0-6.1.4,17.63,17.63,0,0,0-5.9,1.5,11.69,11.69,0,0,0-4.5,3.4,8.72,8.72,0,0,0-1.9,5.9,8.83,8.83,0,0,0,3.3,7.2,23.61,23.61,0,0,0,8.5,4.5,94.54,94.54,0,0,0,12,3.1q6.75,1.35,13.8,3a133.79,133.79,0,0,1,14.1,4,45.14,45.14,0,0,1,12.2,6.2,31.15,31.15,0,0,1,8.6,9.5q3.3,5.7,3.3,14.1c0,7.9-1.6,14.6-4.8,19.9a36.8,36.8,0,0,1-12.5,12.9,49.86,49.86,0,0,1-17.6,6.9,104,104,0,0,1-20.2,2,99.72,99.72,0,0,1-20.5-2.1,53,53,0,0,1-17.8-7,40.44,40.44,0,0,1-12.8-12.9c-3.3-5.4-5.2-12.1-5.5-20.2H455a19.37,19.37,0,0,0,2.2,9.3" transform="translate(-0.3 0.1)"/><path class="cls-1" d="M620.3,109.2v22.1H596V191c0,5.6.9,9.3,2.8,11.2s5.6,2.8,11.2,2.8c1.9,0,3.7-.1,5.4-.2s3.3-.4,4.9-.7v25.6a63.78,63.78,0,0,1-9.3.9c-3.4.2-6.8.2-10,.2a112.87,112.87,0,0,1-14.6-1,34.59,34.59,0,0,1-12.1-4.1,21.49,21.49,0,0,1-8.3-8.6q-3-5.55-3-14.7V131.3H543V109.2h20V73.1h33v36.1Z" transform="translate(-0.3 0.1)"/><path class="cls-1" d="M719.1,170.8a16.33,16.33,0,0,1-5.2,2.9,42.23,42.23,0,0,1-6.8,1.7c-2.4.5-4.9.9-7.6,1.2s-5.3.7-7.9,1.2a60.17,60.17,0,0,0-7.3,1.9,23.14,23.14,0,0,0-6.3,3.1,14.87,14.87,0,0,0-4.3,5,16,16,0,0,0-1.6,7.7,15.69,15.69,0,0,0,1.6,7.5,13.57,13.57,0,0,0,4.4,4.8,18.75,18.75,0,0,0,6.5,2.5,39.4,39.4,0,0,0,7.7.7c6.5,0,11.6-1.1,15.1-3.3a21.87,21.87,0,0,0,7.9-7.8,23.36,23.36,0,0,0,3.1-9.2,61.5,61.5,0,0,0,.6-7.4l.1-12.5Zm-76.4-24.5c.5-7.8,2.4-14.2,5.8-19.3a41.6,41.6,0,0,1,13-12.4,56.52,56.52,0,0,1,17.8-6.6,102.54,102.54,0,0,1,19.9-2,127.49,127.49,0,0,1,18.4,1.3,57,57,0,0,1,17,5,33.6,33.6,0,0,1,12.6,10.4c3.3,4.4,4.9,10.3,4.9,17.6V203a130.92,130.92,0,0,0,.9,15.6c.6,5,1.7,8.7,3.3,11.2H722.7q-.9-2.85-1.5-5.7a38.09,38.09,0,0,1-.8-5.9,43.93,43.93,0,0,1-18.6,11.4,74.06,74.06,0,0,1-21.9,3.3,59.67,59.67,0,0,1-16.1-2.1,37,37,0,0,1-13-6.5,31.11,31.11,0,0,1-8.7-11.2A37.92,37.92,0,0,1,639,197c0-6.8,1.2-12.5,3.6-16.9a30,30,0,0,1,9.3-10.6,42.31,42.31,0,0,1,13.1-5.9,150,150,0,0,1,14.8-3.2c5-.8,9.9-1.4,14.7-1.9a97.68,97.68,0,0,0,12.8-2.1,22.3,22.3,0,0,0,8.9-4.1q3.3-2.7,3-7.8a17,17,0,0,0-1.8-8.5,13,13,0,0,0-4.7-4.9,17.64,17.64,0,0,0-6.8-2.3,54,54,0,0,0-8.3-.6c-6.5,0-11.7,1.4-15.4,4.2s-5.9,7.5-6.5,14l-33-.1Z" transform="translate(-0.3 0.1)"/><path class="cls-1" d="M830.6,130.9a23.37,23.37,0,0,0-13.3,3.6,27.69,27.69,0,0,0-8.7,9.3,43.35,43.35,0,0,0-4.8,12.6,70.56,70.56,0,0,0-1.4,13.6,67.55,67.55,0,0,0,1.4,13.3,39.46,39.46,0,0,0,4.5,12.2,27,27,0,0,0,8.5,9,23.58,23.58,0,0,0,13,3.5q11.85,0,18.3-6.6c4.3-4.4,6.9-10.4,8-17.8H888q-3.3,24-18.6,36.6c-10.3,8.4-23.4,12.6-39.4,12.6a66.33,66.33,0,0,1-24.8-4.5,54.79,54.79,0,0,1-31.5-32.2,66.31,66.31,0,0,1-4.4-24.8,81,81,0,0,1,4.1-26,57.53,57.53,0,0,1,12-20.7A54.5,54.5,0,0,1,804.7,111c7.6-3.3,16.3-4.9,26.1-4.9a74.24,74.24,0,0,1,20.6,2.8,55.84,55.84,0,0,1,17.7,8.5,45.59,45.59,0,0,1,12.7,14.2c3.3,5.7,5.1,12.4,5.6,20.2H855c-2.2-14-10.3-20.9-24.4-20.9" transform="translate(-0.3 0.1)"/><polygon class="cls-1" points="938.2 63.4 938.2 152.7 979.9 109.3 1019 109.3 973.6 153.6 1024.2 229.8 984.1 229.8 951 176 938.2 188.3 938.2 229.8 905.1 229.8 905.1 63.4 938.2 63.4"/><path class="cls-1" d="M1029.8,131.4V109.3h19.8V100c0-10.7,3.3-19.5,10-26.3s16.8-10.2,30.3-10.2c2.9,0,5.9.1,8.9.3l8.6.6V89a94.88,94.88,0,0,0-12.1-.7c-4.5,0-7.7,1-9.7,3.1s-2.9,5.6-2.9,10.6v7.2h22.8v22.1h-22.8v98.3h-33.1V131.3l-19.8.1Z" transform="translate(-0.3 0.1)"/><path class="cls-1" d="M1205,229.7V212.9h-.7A36.92,36.92,0,0,1,1188,228a48.31,48.31,0,0,1-20.5,4.7c-8.9,0-16.1-1.2-21.8-3.5a31,31,0,0,1-13.4-9.9,39.74,39.74,0,0,1-6.9-15.6,98,98,0,0,1-2-20.4V109.2h33.1v68c0,9.9,1.6,17.4,4.7,22.2s8.6,7.3,16.5,7.3c9,0,15.5-2.7,19.6-8s6-14.2,6-26.4V109.2h33.1V229.7Z" transform="translate(-0.3 0.1)"/><path class="cls-1" d="M1331.8,137.4c-4-4.4-10-6.5-18.1-6.5q-8,0-13.2,2.7a25.7,25.7,0,0,0-8.4,6.6,22.66,22.66,0,0,0-4.4,8.4,32,32,0,0,0-1.5,7.9H1340c-1.5-8.4-4.2-14.7-8.2-19.1m-37.4,63.4c5,4.8,12.1,7.2,21.4,7.2a30.11,30.11,0,0,0,17.3-5c4.8-3.3,7.8-6.9,8.8-10.6H1371c-4.7,14.4-11.8,24.8-21.4,31s-21.3,9.3-35,9.3a69.1,69.1,0,0,1-25.6-4.5,52,52,0,0,1-19.3-12.9,57.27,57.27,0,0,1-12.2-20,72.78,72.78,0,0,1-4.3-25.6,71.76,71.76,0,0,1,4.4-25.2,57.56,57.56,0,0,1,12.6-20.2,59.08,59.08,0,0,1,19.4-13.4,61.77,61.77,0,0,1,25.1-4.9c10.2,0,19.2,2,26.8,5.9a54.08,54.08,0,0,1,18.8,16,66.29,66.29,0,0,1,10.6,22.8,82.08,82.08,0,0,1,2.3,26.8h-86.9c.4,10.7,3.2,18.5,8.1,23.3" transform="translate(-0.3 0.1)"/><rect class="cls-1" x="1390.2" y="63.4" width="33.1" height="166.4"/></svg>