<svg id="Layer_1" data-name="Layer 1" xmlns="http://www.w3.org/2000/svg" viewBox="0 0 1025.05 547.63"><defs><style>.cls-1{fill:#fff;}</style></defs><path class="cls-1" d="M345.19,154.84,377,169.45l31.92,14.74,21.85,10,73.53,33.69a19.54,19.54,0,0,0,8.17,1.81,19.15,19.15,0,0,0,8.19-1.81l73.53-33.69,21.83-10,32-14.74,31.81-14.57a4.49,4.49,0,0,0,2.7-4.09,4.56,4.56,0,0,0-2.7-4.21l-39.31-18-21.83,10,26.53,12.17-18.95,8.68-31.92,14.73-21.86,10-55,25a11.87,11.87,0,0,1-10,0l-54.87-25.14-21.86-10-31.92-14.55-18.95-8.78,26.43-12.17-21.94-10-39.31,18a4.51,4.51,0,0,0,.1,8.3" transform="translate(0 -1)"/><path class="cls-1" d="M679.79,217.48l-39.31-17.94-21.83,9.91,26.42,12.18L626,230.32l-31.93,14.74-21.85,10-54.94,25.1a11.92,11.92,0,0,1-10,0L452.53,255l-21.85-10-31.92-14.51-18.95-8.86,26.42-12.2-21.83-10-39.31,18a4.49,4.49,0,0,0-2.7,4.09,4.32,4.32,0,0,0,2.7,4.08L377,240.3,408.93,255l21.85,10,73.53,33.69a19.39,19.39,0,0,0,8.17,1.81,19.15,19.15,0,0,0,8.19-1.81L594.37,265l21.83-10,31.92-14.74L680,225.73a4.42,4.42,0,0,0-.1-8.19" transform="translate(0 -1)"/><path class="cls-1" d="M391,105,345.19,84a4.48,4.48,0,0,1-2.65-4.08,4.21,4.21,0,0,1,2.69-4.09l1.1-.5,30.72-14.17L409,46.42l21.86-10L504.31,2.79A19.52,19.52,0,0,1,512.48,1a19,19,0,0,1,8.19,1.79L594.2,36.48l21.83,10,17.38,8,2.59,1.1,43.69,20a4.64,4.64,0,0,1,2.69,4.21,4.31,4.31,0,0,1-2.69,4.09L647.85,98.47l-31.92,14.74-21.84,9.92-73.42,33.81a19.59,19.59,0,0,1-16.36,0l-73.53-33.81-21.85-9.9L377,98.49" transform="translate(0 -1)"/><path class="cls-1" d="M34.52,514.83a19.83,19.83,0,0,0,5.85,6.45A24.79,24.79,0,0,0,48.6,525a38.66,38.66,0,0,0,9.68,1.2,35.42,35.42,0,0,0,7.52-.84A25,25,0,0,0,73,522.71a16.24,16.24,0,0,0,5.38-4.78,12.46,12.46,0,0,0,2.15-7.52q0-7.64-10.15-11.46T42,491.3q-7.41-1.65-14.45-3.94a48.71,48.71,0,0,1-12.55-6,29.07,29.07,0,0,1-8.83-9.31,26.38,26.38,0,0,1-3.35-13.73q0-11.94,4.66-19.58a34.19,34.19,0,0,1,12.31-12.06A54.12,54.12,0,0,1,37,420.49a106.38,106.38,0,0,1,19.59-1.79,98.12,98.12,0,0,1,19.46,1.91,51.51,51.51,0,0,1,16.83,6.45,38.7,38.7,0,0,1,12.31,12.06q4.89,7.51,5.85,19H78.81q-.7-9.78-7.4-13.25a34,34,0,0,0-15.76-3.46,58.29,58.29,0,0,0-6.21.36,20.94,20.94,0,0,0-6.09,1.55,12.56,12.56,0,0,0-4.65,3.46,9.15,9.15,0,0,0-1.92,6.1,9.29,9.29,0,0,0,3.34,7.4,25.62,25.62,0,0,0,8.73,4.65,107.62,107.62,0,0,0,12.29,3.23c4.62.95,9.33,2,14.09,3.1a148,148,0,0,1,14.45,4.06,47.33,47.33,0,0,1,12.54,6.34,30.77,30.77,0,0,1,8.84,9.78c2.23,3.9,3.33,8.73,3.33,14.45q0,12.18-4.89,20.42a39.36,39.36,0,0,1-12.77,13.26,52.44,52.44,0,0,1-18,7,105.19,105.19,0,0,1-20.66,2,102.44,102.44,0,0,1-21-2.15,55.28,55.28,0,0,1-18.27-7.16A40.91,40.91,0,0,1,5.61,526.05Q.48,517.81,0,505.4H32.24a18.55,18.55,0,0,0,2.28,9.43" transform="translate(0 -1)"/><path class="cls-1" d="M201.62,422.05v22.68H176.78v61.14q0,8.61,2.86,11.47t11.46,2.87c1.92,0,3.75-.09,5.5-.24a49.67,49.67,0,0,0,5-.72v26.27a82.45,82.45,0,0,1-9.55,1q-5.26.24-10.28.24a99.75,99.75,0,0,1-14.92-1.07,35,35,0,0,1-12.41-4.18,22.12,22.12,0,0,1-8.49-8.84q-3.1-5.73-3.1-15V444.73H122.33V422h20.54V385h33.91v37h24.84Z" transform="translate(0 -1)"/><path class="cls-1" d="M302.9,485.1a15.29,15.29,0,0,1-5.37,3,55.13,55.13,0,0,1-6.93,1.79c-2.47.48-5.05.88-7.77,1.2s-5.4.71-8.11,1.19a59.2,59.2,0,0,0-7.52,1.92,22.07,22.07,0,0,0-6.46,3.22,15.42,15.42,0,0,0-4.41,5.13,16.58,16.58,0,0,0-1.67,7.88,16,16,0,0,0,1.67,7.64,12.85,12.85,0,0,0,4.54,4.9,19.3,19.3,0,0,0,6.68,2.51,42.57,42.57,0,0,0,7.89.71q10,0,15.52-3.34a22.41,22.41,0,0,0,8.12-8,25.85,25.85,0,0,0,3.22-9.44,64.26,64.26,0,0,0,.6-7.63V485.1ZM224.57,460q.72-11.92,6-19.82a40.76,40.76,0,0,1,13.37-12.66,58.23,58.23,0,0,1,18.27-6.8,103.31,103.31,0,0,1,20.42-2A137.52,137.52,0,0,1,301.46,420a58.19,58.19,0,0,1,17.45,5.13,34.42,34.42,0,0,1,12.89,10.63q5,6.81,5,18v64.24a130.63,130.63,0,0,0,.95,16q1,7.63,3.35,11.46H306.72a48.4,48.4,0,0,1-1.55-5.85,51,51,0,0,1-.84-6.09,44.18,44.18,0,0,1-19.11,11.7,76.58,76.58,0,0,1-22.44,3.34,60.75,60.75,0,0,1-16.48-2.15,37.53,37.53,0,0,1-13.37-6.68,31.3,31.3,0,0,1-9-11.47,38.9,38.9,0,0,1-3.22-16.47q0-10.52,3.7-17.32A31,31,0,0,1,234,483.67a42.52,42.52,0,0,1,13.38-6.09,144.55,144.55,0,0,1,15.16-3.24q7.65-1.18,15-1.9a91.32,91.32,0,0,0,13.13-2.15,23.08,23.08,0,0,0,9.08-4.18q3.33-2.75,3.1-8a18.06,18.06,0,0,0-1.79-8.72,13.35,13.35,0,0,0-4.78-5,18.91,18.91,0,0,0-6.92-2.38,57.75,57.75,0,0,0-8.48-.6q-10,0-15.76,4.29T258.48,460Z" transform="translate(0 -1)"/><path class="cls-1" d="M417.16,444.26q-8.13,0-13.6,3.7a29.51,29.51,0,0,0-9,9.55,42,42,0,0,0-4.89,12.9,70.41,70.41,0,0,0-1.43,14A67.42,67.42,0,0,0,389.7,498a42.74,42.74,0,0,0,4.65,12.54,26.74,26.74,0,0,0,8.73,9.19,23.89,23.89,0,0,0,13.37,3.59q12.18,0,18.75-6.81t8.23-18.26h32.72q-3.33,24.59-19.1,37.48t-40.37,12.9A67.46,67.46,0,0,1,391.25,544a56.19,56.19,0,0,1-19.7-13A59.31,59.31,0,0,1,358.9,511a69.09,69.09,0,0,1-4.54-25.44,82.45,82.45,0,0,1,4.17-26.63,60,60,0,0,1,12.31-21.26,56.06,56.06,0,0,1,19.83-14q11.67-5,26.72-5a77.47,77.47,0,0,1,21.15,2.87,56.28,56.28,0,0,1,18.16,8.71,45.09,45.09,0,0,1,18.74,35.23H442.25q-3.37-21.25-25.09-21.25" transform="translate(0 -1)"/><polygon class="cls-1" points="527.81 374 527.81 465.47 570.56 421.05 610.68 421.05 564.11 466.43 615.94 544.52 574.85 544.52 540.94 489.35 527.81 502 527.81 544.52 493.89 544.52 493.89 374 527.81 374"/><path class="cls-1" d="M621.42,444.73V422.05h20.3v-9.56q0-16.47,10.27-27T683,375c3,0,6.06.12,9.08.35s6,.45,8.85.6v25.31a104,104,0,0,0-12.44-.71c-4.61,0-7.92,1.07-9.9,3.23s-3,5.76-3,10.86v7.41H699v22.68H675.63V545.52H641.72V444.73Z" transform="translate(0 -1)"/><path class="cls-1" d="M801,545.52v-17.2h-.71a38,38,0,0,1-16.71,15.52,49.26,49.26,0,0,1-21,4.78q-13.62,0-22.34-3.58a32.13,32.13,0,0,1-13.73-10.15,39.66,39.66,0,0,1-7-16,99,99,0,0,1-2-20.9V422.05H751.3v69.73q0,15.29,4.79,22.81T773,522.11q13.85,0,20.07-8.23t6.19-27.11V422.05h33.91V545.52Z" transform="translate(0 -1)"/><path class="cls-1" d="M931,451q-6.08-6.69-18.51-6.69-8.12,0-13.49,2.74a25.93,25.93,0,0,0-8.6,6.81,25.09,25.09,0,0,0-4.54,8.6,38.6,38.6,0,0,0-1.55,8.12h55.17Q937.07,457.63,931,451m-38.32,65q7.64,7.4,22,7.4a30.28,30.28,0,0,0,17.68-5.14c4.93-3.41,8-7,9.06-10.87h29.87q-7.17,22.21-22,31.77t-35.83,9.55A70.38,70.38,0,0,1,887.15,544a54.47,54.47,0,0,1-19.82-13.25,59.53,59.53,0,0,1-12.54-20.54,75,75,0,0,1-4.42-26.27,71.91,71.91,0,0,1,4.54-25.79,59.72,59.72,0,0,1,32.83-34.39,63.84,63.84,0,0,1,25.68-5q15.76,0,27.46,6.08a54.64,54.64,0,0,1,19.22,16.36A67.2,67.2,0,0,1,971,464.56a87.33,87.33,0,0,1,2.4,27.46H884.28q.72,16.47,8.37,23.89" transform="translate(0 -1)"/><rect class="cls-1" x="991.15" y="374" width="33.91" height="170.52"/></svg>